<svg id="election2020brand" xmlns="http://www.w3.org/2000/svg" viewBox="0 0 100 25" width="80" height="20" aria-labelledby="styln-2024-election-hp-menu" role="img"><title id="styln-2024-election-hp-menu">2024 Election</title><rect class="cls-2" width="25" height="25" fill="#f4564a"></rect><path class="cls-1" d="m17.5,19.4H7.4v-2c.8-.8,1.7-1.5,2.6-2.2.7-.6,1.3-1.1,1.9-1.7,1.3-1.2,1.7-2.1,1.7-3.1,0-.8-.4-1.5-1.3-1.5-.8,0-1.6.6-2,2l-3-.9c.9-2.8,2.9-3.8,5.2-3.8,2.6,0,4.8,1.2,4.8,4.1,0,2.7-2.5,4.6-4.6,6.1h4.7v3h.1Z" fill="#fff"></path><rect class="cls-3" x="25" width="25" height="25" fill="#2b8ad8"></rect><path class="cls-1" d="m37.5,19.6c-3,0-5.3-2.4-5.3-6.7,0-3.9,1.9-6.7,5.3-6.7s5.3,2.9,5.3,6.7c0,4.1-2.1,6.7-5.3,6.7Zm0-10.9c-1.5,0-1.7,1.5-1.7,4.2,0,3,.3,4.1,1.7,4.1s1.7-1.1,1.7-4.1c0-2.7-.2-4.2-1.7-4.2Z" fill="#fff"></path><rect class="cls-2" x="50" width="25" height="25" fill="#f4564a"></rect><rect class="cls-3" x="75" width="25" height="25" fill="#2b8ad8"></rect><path class="cls-1" d="m17.5,19.4H7.4v-2c.8-.8,1.7-1.5,2.6-2.2.7-.6,1.3-1.1,1.9-1.7,1.3-1.2,1.7-2.1,1.7-3.1,0-.8-.4-1.5-1.3-1.5-.8,0-1.6.6-2,2l-3-.9c.9-2.8,2.9-3.8,5.2-3.8,2.6,0,4.8,1.2,4.8,4.1,0,2.7-2.5,4.6-4.6,6.1h4.7v3h.1Z" fill="#fff"></path><path class="cls-1" d="m67.5,19.4h-10.1v-2c.8-.8,1.7-1.5,2.6-2.2.7-.6,1.3-1.1,1.9-1.7,1.3-1.2,1.7-2.1,1.7-3.1,0-.8-.4-1.5-1.3-1.5-.8,0-1.6.6-2,2l-3-.9c.9-2.8,2.9-3.8,5.2-3.8,2.6,0,4.8,1.2,4.8,4.1,0,2.7-2.5,4.6-4.6,6.1h4.7v3h.1Z" fill="#fff"></path><path class="cls-1" d="m92.68344,16.625h-1.94824v2.79688h-3.50977v-2.79688h-5.3623v-2.5459l5.6709-7.65723h3.20117v7.6377h1.94824v2.56543Zm-5.34277-2.56543v-3.87646l-2.87402,3.87646h2.87402Z" fill="#fff"></path></svg>